{
  "accessors": [
    {
      "bufferView": 2,
      "componentType": 5126,
      "count": 9752,
      "max": [
        2.0747203826904297,
        0.4729512631893158,
        0.850504994392395
      ],
      "min": [
        -2.4411532878875732,
        -0.988879919052124,
        -0.7730590105056763
      ],
      "type": "VEC3"
    },
    {
      "bufferView": 2,
      "byteOffset": 117024,
      "componentType": 5126,
      "count": 9752,
      "max": [
        0.999817967414856,
        0.9999138116836548,
        0.9996597766876221
      ],
      "min": [
        -0.9996081590652466,
        -0.9999786615371704,
        -0.9999279975891113
      ],
      "type": "VEC3"
    },
    {
      "bufferView": 3,
      "componentType": 5126,
      "count": 9752,
      "max": [
        0.9989757537841797,
        0.9999935030937195,
        0.9998548626899719,
        1.0
      ],
      "min": [
        -0.9997435808181763,
        -0.9999449849128723,
        -0.999958336353302,
        1.0
      ],
      "type": "VEC4"
    },
    {
      "bufferView": 1,
      "componentType": 5126,
      "count": 9752,
      "max": [
        0.999383270740509,
        0.9927266836166382
      ],
      "min": [
        0.0006167993415147066,
        0.0006167993415147066
      ],
      "type": "VEC2"
    },
    {
      "bufferView": 0,
      "componentType": 5125,
      "count": 35952,
      "type": "SCALAR"
    }
  ],
  "asset": {
    "extras": {
      "author": "Cyril43 (https://sketchfab.com/Cyril43)",
      "license": "CC-BY-4.0 (http://creativecommons.org/licenses/by/4.0/)",
      "source": "https://sketchfab.com/3d-models/shoes-08158fa3333a4b288bd2746a6ba6f9e5",
      "title": "Shoes"
    },
    "generator": "Sketchfab-12.68.0",
    "version": "2.0"
  },
  "bufferViews": [
    {
      "buffer": 0,
      "byteLength": 143808,
      "name": "floatBufferViews",
      "target": 34963
    },
    {
      "buffer": 0,
      "byteLength": 78016,
      "byteOffset": 143808,
      "byteStride": 8,
      "name": "floatBufferViews",
      "target": 34962
    },
    {
      "buffer": 0,
      "byteLength": 234048,
      "byteOffset": 221824,
      "byteStride": 12,
      "name": "floatBufferViews",
      "target": 34962
    },
    {
      "buffer": 0,
      "byteLength": 156032,
      "byteOffset": 455872,
      "byteStride": 16,
      "name": "floatBufferViews",
      "target": 34962
    }
  ],
  "buffers": [
    {
      "byteLength": 611904,
      "uri": "scene.bin"
    }
  ],
  "images": [
    {
      "uri": "textures/Sheos_baseColor.png"
    },
    {
      "uri": "textures/Sheos_metallicRoughness.png"
    },
    {
      "uri": "textures/Sheos_normal.png"
    }
  ],
  "materials": [
    {
      "doubleSided": true,
      "name": "Sheos",
      "normalTexture": {
        "index": 2
      },
      "pbrMetallicRoughness": {
        "baseColorTexture": {
          "index": 0
        },
        "metallicFactor": 0.0,
        "metallicRoughnessTexture": {
          "index": 1
        }
      }
    }
  ],
  "meshes": [
    {
      "name": "Object_0",
      "primitives": [
        {
          "attributes": {
            "NORMAL": 1,
            "POSITION": 0,
            "TANGENT": 2,
            "TEXCOORD_0": 3
          },
          "indices": 4,
          "material": 0,
          "mode": 4
        }
      ]
    }
  ],
  "nodes": [
    {
      "children": [
        1
      ],
      "matrix": [
        0.7101556062698364,
        0.0,
        0.0,
        0.0,
        0.0,
        1.5768622102948192e-16,
        -0.7101556062698364,
        0.0,
        0.0,
        0.7101556062698364,
        1.5768622102948192e-16,
        0.0,
        0.0,
        0.0,
        0.0,
        1.0
      ],
      "name": "Sketchfab_model"
    },
    {
      "children": [
        2
      ],
      "name": "root"
    },
    {
      "children": [
        3
      ],
      "matrix": [
        1.0,
        0.0,
        0.0,
        0.0,
        0.0,
        2.220446049250313e-16,
        1.0,
        0.0,
        0.0,
        -1.0,
        2.220446049250313e-16,
        0.0,
        0.0,
        0.0,
        0.0,
        1.0
      ],
      "name": "GLTF_SceneRootNode"
    },
    {
      "children": [
        4
      ],
      "name": "shoe_0"
    },
    {
      "mesh": 0,
      "name": "Object_4"
    }
  ],
  "samplers": [
    {
      "magFilter": 9729,
      "minFilter": 9987,
      "wrapS": 10497,
      "wrapT": 10497
    }
  ],
  "scene": 0,
  "scenes": [
    {
      "name": "Sketchfab_Scene",
      "nodes": [
        0
      ]
    }
  ],
  "textures": [
    {
      "sampler": 0,
      "source": 0
    },
    {
      "sampler": 0,
      "source": 1
    },
    {
      "sampler": 0,
      "source": 2
    }
  ]
}
